<svg aria-hidden="true" style="position: absolute; width: 0; height: 0; overflow: hidden;" version="1.1" xmlns="http://www.w3.org/2000/svg" xmlns:xlink="http://www.w3.org/1999/xlink">
<!-- <defs> -->
<symbol id="icon-bell" viewBox="0 0 28 32">
<path fill="#444" style="fill: var(--color1, #444)" opacity="0.4" d="M27.461 22.641c-1.203-1.297-3.469-3.25-3.469-9.641 0-4.859-3.398-8.742-7.992-9.695v-1.305c0-1.102-0.898-2-2-2s-2 0.898-2 2v1.305c-4.594 0.953-7.992 4.836-7.992 9.695 0 6.391-2.266 8.344-3.469 9.641-0.375 0.406-0.539 0.891-0.539 1.359 0.008 1.023 0.813 2 2.008 2h23.984c1.195 0 2-0.977 2.008-2 0-0.469-0.164-0.953-0.539-1.359z"></path>
<path fill="#444" style="fill: var(--color1, #191919)" d="M18 28c0 2.211-1.789 4-4 4s-4-1.789-4-4h8z"></path>
</symbol>
<symbol id="icon-camera-web" viewBox="0 0 28 32">
<path fill="#444" style="fill: var(--color1, blueviolet)" opacity="1" d="M14.008 6h-0.008c-4.414 0-8 3.578-8 8s3.586 8 8 8c4.422 0 8-3.578 8-8 0-4.414-3.578-8-7.992-8zM14 11c-1.656 0-2.992 1.344-3 3 0 0.555-0.445 1-1 1-0.547 0-1-0.445-1-1 0.008-2.758 2.242-5 5-5 0.555 0 1 0.445 1 1s-0.445 1-1 1z"></path>
<path fill="#444" style="fill: var(--color1, #191919)" d="M25.055 27.414l-3.070-1.922c3.633-2.531 6.016-6.727 6.016-11.492 0-7.734-6.273-14-14-14-7.734 0-14 6.266-14 14 0 4.766 2.383 8.961 6.008 11.492l-3.070 1.922c-0.586 0.367-0.938 1.008-0.938 1.695v0.891c0 1.102 0.898 2 2 2h20c1.102 0 2-0.898 2-2v-0.891c0-0.688-0.359-1.328-0.945-1.695zM13.992 24c-5.523 0-10-4.477-10-10s4.477-10 10-10 10 4.477 10 10-4.477 10-9.992 10h-0.008z"></path>
</symbol>
<symbol id="icon-comment" viewBox="0 0 40 32">
<path fill="#444" style="fill: var(--color1, #444)" opacity="0.4" d="M26 11c0 6.075-5.82 11-13 11-2.386 0-4.615-0.553-6.537-1.503-1.561 0.808-3.587 1.503-5.984 1.503-0.191 0-0.36-0.108-0.439-0.288-0.077-0.18-0.041-0.384 0.090-0.522 0.023-0.023 1.45-1.557 2.474-3.605-1.628-1.837-2.604-4.112-2.604-6.585 0-6.075 5.82-11 13-11s13 4.925 13 11z"></path>
<path fill="#444" style="fill: var(--color1, #191919)" d="M39.877 31.19c0.131 0.138 0.167 0.342 0.090 0.522-0.079 0.18-0.248 0.288-0.439 0.288-2.266 0-4.194-0.624-5.718-1.374-1.72 0.873-3.697 1.374-5.803 1.374-5.626 0-10.334-3.554-11.633-8.342 6.653-1.33 11.633-6.494 11.633-12.658 0-0.337-0.029-0.667-0.058-0.997 0.020-0 0.039-0.003 0.058-0.003 6.627 0 12 4.925 12 11 0 2.54-0.948 4.872-2.525 6.733 1.017 1.971 2.373 3.435 2.395 3.457z"></path>
</symbol>
<symbol id="icon-home-simple" viewBox="0 0 36 32">
<path fill="#000" style="fill: var(--color2, #000)" opacity="0.4" d="M31.998 16.908v11.092c0 2.209-1.791 4-4 4h-19.998c-2.209 0-4-1.791-4-4v-11.093l13.998-12.248 14 12.249z"></path>
<path fill="#000" style="fill: var(--color2, #191919)" d="M36 16.001c0 1.53-1.387 1.999-2.001 1.999-0.467 0-0.937-0.162-1.316-0.494l-14.683-12.847-14.682 12.847c-0.38 0.331-0.85 0.494-1.317 0.494-0.53 0-2-0.42-2-1.999 0-0.461 0.167-1.054 0.683-1.506l16-13.999c0.377-0.33 0.847-0.495 1.317-0.495s0.94 0.165 1.317 0.495l16 13.999c0.517 0.453 0.683 1.046 0.683 1.506z"></path>
</symbol>
<symbol id="icon-menu" viewBox="0 0 32 32">
<path d="M4 12c-2.212 0-4 1.789-4 4s1.788 4 4 4 4-1.789 4-4-1.788-4-4-4zM16 12c-2.212 0-4 1.789-4 4s1.788 4 4 4 4-1.789 4-4-1.788-4-4-4zM28 12c-2.212 0-4 1.789-4 4s1.788 4 4 4 4-1.789 4-4-1.788-4-4-4z"></path>
</symbol>
<symbol id="icon-messages" viewBox="0 0 40 32">
<path fill="#444" style="fill: var(--color1, #444)" opacity="0.4" d="M26 4v12.001c0 2.203-1.797 4-4 3.992l-9.859 0.009-5.172 3.883c-0.398 0.297-0.969 0.008-0.969-0.492v-3.39l-2-0.001c-2.203 0-4-1.797-4-4v-12.001c0-2.203 1.797-4 4-4h18c2.203 0 4 1.797 4 4z"></path>
<path fill="#444" style="fill: var(--color1, #191919)" d="M40 12v11.998c0 2.203-1.797 4-4 4h-2v3.39c0 0.5-0.57 0.789-0.969 0.492l-5.172-3.882h-7.859c-2.203 0-4-1.797-4-4v-1.999h6c3.305 0 6-2.695 6-6v-8h8c2.203 0 4 1.797 4 4z"></path>
</symbol>
<symbol id="icon-paper-plane" viewBox="0 0 32 32">
<path d="M31.133 0.352c-0.34-0.234-0.736-0.352-1.133-0.352-0.341 0-0.684 0.087-0.992 0.264l-28 15.999c-0.662 0.378-1.051 1.1-1.004 1.86s0.523 1.429 1.227 1.722l6.452 2.688 3.874 9.153c0.093 0.22 0.268 0.314 0.441 0.314 0.129 0 0.256-0.051 0.349-0.14l5.36-5.15 7.524 3.135c0.268 0.112 0.527 0.155 0.763 0.155 0.413 0 0.762-0.131 0.985-0.257 0.537-0.302 0.904-0.832 0.998-1.44l4-25.999c0.117-0.759-0.211-1.518-0.844-1.952zM2 18l23.757-13.575-18.014 15.967-5.743-2.392zM12.546 28.894l-3.105-7.336 14.345-12.715-10.595 14.568c-0.182 0.25-0.237 0.568-0.152 0.865s0.303 0.537 0.59 0.65l2.15 0.86-3.233 3.107zM26.044 27.709l-10.48-4.16 14.104-19.393-3.624 23.553z"></path>
</symbol>
<symbol id="icon-pin" viewBox="0 0 24 32">
<path d="M10 28.5c0 0.078 0.018 0.154 0.053 0.224l1.5 3c0.184 0.368 0.711 0.369 0.895 0l1.5-3c0.029-0.058 0.053-0.158 0.053-0.224v-4.5h-4v4.5zM18.627 13.392l-0.766-7.392h2.639c0.828 0 1.5-0.672 1.5-1.5v-3c0-0.828-0.672-1.5-1.5-1.5h-17c-0.828 0-1.5 0.672-1.5 1.5v3c0 0.828 0.672 1.5 1.5 1.5h2.639l-0.766 7.392c-3.031 1.409-5.373 3.937-5.373 7.108 0 0.828 0.672 1.5 1.5 1.5h21c0.828 0 1.5-0.672 1.5-1.5 0-3.199-2.373-5.714-5.373-7.108z"></path>
</symbol>
<symbol id="icon-star" viewBox="0 0 36 32">
<path d="M19.796 1.113l4.089 8.274 9.148 1.331c1.642 0.237 2.299 2.256 1.109 3.412l-6.62 6.437 1.565 9.093c0.282 1.644-1.452 2.869-2.906 2.106l-8.183-4.293-8.183 4.293c-1.454 0.768-3.187-0.462-2.906-2.106l1.565-9.093-6.62-6.437c-1.19-1.156-0.532-3.174 1.109-3.412l9.148-1.331 4.089-8.274c0.738-1.493 2.861-1.474 3.593 0z"></path>
</symbol>
<symbol id="icon-thumbs-up" viewBox="0 0 32 32">
<path fill="#444" style="fill: var(--color1, #444)" opacity="0.4" d="M32 14.007c0-1.656-1.343-2.999-3-2.999h-9.157c1.423-2.369 2.158-5.055 2.158-6.001 0-1.474-1.157-3.007-3.092-3.007-3.946 0-1.648 4.759-6.764 8.851l-1.018 0.814c-0.737 0.588-1.108 1.454-1.113 2.328-0.002 0.002-0.013 0.013-0.013 0.013v9.996c0 0.944 0.445 1.833 1.2 2.399l2.134 1.6c1.731 1.297 3.835 1.999 5.998 1.999h3.668c1.657 0 3-1.342 3-2.999 0-0.227-0.030-0.446-0.078-0.659 1.203-0.39 2.078-1.507 2.078-2.839 0-0.572-0.169-1.1-0.446-1.555 1.392-0.26 2.446-1.476 2.446-2.943 0-0.781-0.306-1.486-0.795-2.020 1.56-0.107 2.795-1.392 2.795-2.978z"></path>
<path fill="#444" style="fill: var(--color1, #191919)" d="M8 28v-14c0-1.104-0.895-2-2-2h-4c-1.105 0-2 0.896-2 2v14c0 1.105 0.895 2 2 2h4c1.105 0 2-0.895 2-2z"></path>
</symbol>
<symbol id="icon-user-group" viewBox="0 0 40 32">
<path fill="#444" style="fill: var(--color1, #444)" opacity="0.4" d="M29.974 20h-4.616c2.814 2.356 4.616 5.884 4.616 9.833 0 0.796-0.236 1.533-0.625 2.167h8.625c1.104 0 2-0.895 2-2 0-5.523-4.477-10-10-10zM26.974 16c3.866 0 7-3.134 7-7s-3.134-7-7-7c-1.569 0-3.003 0.535-4.17 1.407 0.722 1.382 1.17 2.929 1.17 4.593 0 2.22-0.746 4.259-1.974 5.919 1.269 1.283 3.027 2.081 4.974 2.081z"></path>
<path fill="#444" style="fill: var(--color1, #191919)" d="M14 16c4.418 0 8-3.582 8-8s-3.582-8-8-8c-4.418 0-8 3.582-8 8s3.582 8 8 8zM17.166 19h-6.333c-5.983 0-10.834 4.85-10.834 10.833 0 1.197 0.97 2.167 2.167 2.167h23.667c1.196 0 2.166-0.97 2.166-2.167 0-5.983-4.85-10.833-10.834-10.833z"></path>
</symbol>
<symbol id="icon-user-plus" viewBox="0 0 40 32">
<path fill="#444" style="fill: var(--color1, #444)" opacity="0.4" d="M14 16c4.418 0 8-3.582 8-8s-3.582-8-8-8c-4.418 0-8 3.582-8 8s3.582 8 8 8zM17.166 19h-6.333c-5.983 0-10.834 4.85-10.834 10.833 0 1.197 0.97 2.167 2.167 2.167h23.667c1.196 0 2.166-0.97 2.166-2.167 0-5.983-4.85-10.833-10.834-10.833z"></path>
<path fill="#444" style="fill: var(--color1, #191919)" d="M38.5 12.5h-3v-3c0-0.828-0.672-1.5-1.5-1.5s-1.5 0.672-1.5 1.5v3h-3c-0.828 0-1.5 0.672-1.5 1.5s0.672 1.5 1.5 1.5h3v3c0 0.828 0.672 1.5 1.5 1.5s1.5-0.672 1.5-1.5v-3h3c0.828 0 1.5-0.672 1.5-1.5s-0.672-1.5-1.5-1.5z"></path>
</symbol>
<symbol id="icon-users" viewBox="0 0 40 32">
<path fill="#444" style="fill: var(--color1, #444)" opacity="0.4" d="M8 10c2.761 0 5-2.239 5-5s-2.239-5-5-5c-2.761 0-5 2.239-5 5s2.239 5 5 5zM32 10c2.761 0 5-2.239 5-5s-2.239-5-5-5c-2.761 0-5 2.239-5 5s2.239 5 5 5zM34.495 12h-3.865c-0.8 0-1.555 0.19-2.241 0.515 0.038 0.327 0.1 0.648 0.1 0.985 0 2.107-0.799 4.013-2.073 5.5h12.483c0.608 0 1.101-0.522 1.101-1.167 0-3.222-2.465-5.833-5.505-5.833zM11.595 12.505c-0.681-0.32-1.431-0.505-2.225-0.505h-3.865c-3.040 0-5.505 2.612-5.505 5.833 0 0.644 0.493 1.167 1.101 1.167h12.466c-1.274-1.487-2.073-3.393-2.073-5.5 0-0.341 0.061-0.664 0.101-0.995z"></path>
<path fill="#444" style="fill: var(--color1, #191919)" d="M19.991 20c3.588 0 6.497-2.91 6.497-6.5s-2.909-6.5-6.497-6.5c-3.588 0-6.497 2.91-6.497 6.5s2.909 6.5 6.497 6.5zM23.118 22h-6.236c-4.905 0-8.882 3.731-8.882 8.333 0 0.92 0.795 1.667 1.776 1.667h20.447c0.981 0 1.776-0.746 1.776-1.667 0-4.602-3.976-8.333-8.882-8.333z"></path>
</symbol>
<symbol id="icon-pushpin" viewBox="0 0 32 32">
<path d="M17 0l-3 3 3 3-7 8h-7l5.5 5.5-8.5 11.269v1.231h1.231l11.269-8.5 5.5 5.5v-7l8-7 3 3 3-3-15-15zM14 17l-2-2 7-7 2 2-7 7z"></path>
</symbol>
<symbol id="icon-bubble2" viewBox="0 0 32 32">
<path d="M16 6c-1.717 0-3.375 0.271-4.928 0.804-1.46 0.502-2.76 1.211-3.863 2.108-2.069 1.681-3.209 3.843-3.209 6.088 0 1.259 0.35 2.481 1.039 3.63 0.711 1.185 1.781 2.268 3.093 3.133 0.949 0.625 1.587 1.623 1.755 2.747 0.056 0.375 0.091 0.753 0.105 1.129 0.233-0.194 0.461-0.401 0.684-0.624 0.755-0.755 1.774-1.172 2.828-1.172 0.168 0 0.336 0.011 0.505 0.032 0.655 0.083 1.325 0.126 1.99 0.126 1.717 0 3.375-0.271 4.928-0.804 1.46-0.502 2.76-1.211 3.863-2.108 2.069-1.681 3.209-3.843 3.209-6.088s-1.14-4.407-3.209-6.088c-1.104-0.897-2.404-1.606-3.863-2.108-1.553-0.534-3.211-0.804-4.928-0.804zM16 2v0c8.837 0 16 5.82 16 13s-7.163 13-16 13c-0.849 0-1.682-0.054-2.495-0.158-3.437 3.437-7.539 4.053-11.505 4.144v-0.841c2.142-1.049 4-2.961 4-5.145 0-0.305-0.024-0.604-0.068-0.897-3.619-2.383-5.932-6.024-5.932-10.103 0-7.18 7.163-13 16-13z"></path>
</symbol>
<symbol id="icon-bubbles3" viewBox="0 0 36 32">
<path d="M34 28.161c0 1.422 0.813 2.653 2 3.256v0.498c-0.332 0.045-0.671 0.070-1.016 0.070-2.125 0-4.042-0.892-5.398-2.321-0.819 0.218-1.688 0.336-2.587 0.336-4.971 0-9-3.582-9-8s4.029-8 9-8c4.971 0 9 3.582 9 8 0 1.73-0.618 3.331-1.667 4.64-0.213 0.463-0.333 0.979-0.333 1.522zM7.209 6.912c-2.069 1.681-3.209 3.843-3.209 6.088 0 1.259 0.35 2.481 1.039 3.63 0.711 1.185 1.781 2.268 3.093 3.133 0.949 0.625 1.587 1.623 1.755 2.747 0.056 0.375 0.091 0.753 0.105 1.129 0.233-0.194 0.461-0.401 0.684-0.624 0.755-0.755 1.774-1.172 2.828-1.172 0.168 0 0.336 0.011 0.505 0.032 0.655 0.083 1.323 0.125 1.987 0.126v4c-0.848-0-1.68-0.054-2.492-0.158-3.437 3.437-7.539 4.053-11.505 4.144v-0.841c2.142-1.049 4-2.961 4-5.145 0-0.305-0.024-0.604-0.068-0.897-3.619-2.383-5.932-6.024-5.932-10.103 0-7.18 7.163-13 16-13 8.702 0 15.781 5.644 15.995 12.672-1.284-0.572-2.683-0.919-4.133-1.018-0.36-1.752-1.419-3.401-3.070-4.742-1.104-0.897-2.404-1.606-3.863-2.108-1.553-0.534-3.211-0.804-4.928-0.804s-3.375 0.271-4.928 0.804c-1.46 0.502-2.76 1.211-3.863 2.108z"></path>
</symbol>
<symbol id="icon-bubbles4" viewBox="0 0 36 32">
<path d="M15 4c-1.583 0-3.112 0.248-4.543 0.738-1.341 0.459-2.535 1.107-3.547 1.926-1.876 1.518-2.91 3.463-2.91 5.474 0 1.125 0.315 2.217 0.935 3.247 0.646 1.073 1.622 2.056 2.821 2.842 0.951 0.624 1.592 1.623 1.761 2.748 0.028 0.187 0.051 0.375 0.068 0.564 0.085-0.079 0.169-0.16 0.254-0.244 0.754-0.751 1.771-1.166 2.823-1.166 0.167 0 0.335 0.011 0.503 0.032 0.605 0.077 1.223 0.116 1.836 0.116 1.583 0 3.112-0.248 4.543-0.738 1.341-0.459 2.535-1.107 3.547-1.926 1.876-1.518 2.91-3.463 2.91-5.474s-1.033-3.956-2.91-5.474c-1.012-0.819-2.206-1.467-3.547-1.926-1.431-0.49-2.96-0.738-4.543-0.738zM15 0v0c8.284 0 15 5.435 15 12.139s-6.716 12.139-15 12.139c-0.796 0-1.576-0.051-2.339-0.147-3.222 3.209-6.943 3.785-10.661 3.869v-0.785c2.008-0.98 3.625-2.765 3.625-4.804 0-0.285-0.022-0.564-0.063-0.837-3.392-2.225-5.562-5.625-5.562-9.434 0-6.704 6.716-12.139 15-12.139zM31.125 27.209c0 1.748 1.135 3.278 2.875 4.118v0.673c-3.223-0.072-6.181-0.566-8.973-3.316-0.661 0.083-1.337 0.126-2.027 0.126-2.983 0-5.732-0.805-7.925-2.157 4.521-0.016 8.789-1.464 12.026-4.084 1.631-1.32 2.919-2.87 3.825-4.605 0.961-1.84 1.449-3.799 1.449-5.825 0-0.326-0.014-0.651-0.039-0.974 2.268 1.873 3.664 4.426 3.664 7.24 0 3.265-1.88 6.179-4.82 8.086-0.036 0.234-0.055 0.474-0.055 0.718z"></path>
</symbol>
<symbol id="icon-earth" viewBox="0 0 32 32">
<path d="M16 0c-8.837 0-16 7.163-16 16s7.163 16 16 16 16-7.163 16-16-7.163-16-16-16zM16 30c-1.967 0-3.84-0.407-5.538-1.139l7.286-8.197c0.163-0.183 0.253-0.419 0.253-0.664v-3c0-0.552-0.448-1-1-1-3.531 0-7.256-3.671-7.293-3.707-0.188-0.188-0.442-0.293-0.707-0.293h-4c-0.552 0-1 0.448-1 1v6c0 0.379 0.214 0.725 0.553 0.894l3.447 1.724v5.871c-3.627-2.53-6-6.732-6-11.489 0-2.147 0.484-4.181 1.348-6h3.652c0.265 0 0.52-0.105 0.707-0.293l4-4c0.188-0.188 0.293-0.442 0.293-0.707v-2.419c1.268-0.377 2.61-0.581 4-0.581 2.2 0 4.281 0.508 6.134 1.412-0.13 0.109-0.256 0.224-0.376 0.345-1.133 1.133-1.757 2.64-1.757 4.243s0.624 3.109 1.757 4.243c1.139 1.139 2.663 1.758 4.239 1.758 0.099 0 0.198-0.002 0.297-0.007 0.432 1.619 1.211 5.833-0.263 11.635-0.014 0.055-0.022 0.109-0.026 0.163-2.541 2.596-6.084 4.208-10.004 4.208z"></path>
</symbol>
<symbol id="icon-link" viewBox="0 0 32 32">
<path d="M13.757 19.868c-0.416 0-0.832-0.159-1.149-0.476-2.973-2.973-2.973-7.81 0-10.783l6-6c1.44-1.44 3.355-2.233 5.392-2.233s3.951 0.793 5.392 2.233c2.973 2.973 2.973 7.81 0 10.783l-2.743 2.743c-0.635 0.635-1.663 0.635-2.298 0s-0.635-1.663 0-2.298l2.743-2.743c1.706-1.706 1.706-4.481 0-6.187-0.826-0.826-1.925-1.281-3.094-1.281s-2.267 0.455-3.094 1.281l-6 6c-1.706 1.706-1.706 4.481 0 6.187 0.635 0.635 0.635 1.663 0 2.298-0.317 0.317-0.733 0.476-1.149 0.476z"></path>
<path d="M8 31.625c-2.037 0-3.952-0.793-5.392-2.233-2.973-2.973-2.973-7.81 0-10.783l2.743-2.743c0.635-0.635 1.664-0.635 2.298 0s0.635 1.663 0 2.298l-2.743 2.743c-1.706 1.706-1.706 4.481 0 6.187 0.826 0.826 1.925 1.281 3.094 1.281s2.267-0.455 3.094-1.281l6-6c1.706-1.706 1.706-4.481 0-6.187-0.635-0.635-0.635-1.663 0-2.298s1.663-0.635 2.298 0c2.973 2.973 2.973 7.81 0 10.783l-6 6c-1.44 1.44-3.355 2.233-5.392 2.233z"></path>
</symbol>
<symbol id="icon-heart" viewBox="0 0 32 32">
<path d="M23.6 2c-3.363 0-6.258 2.736-7.599 5.594-1.342-2.858-4.237-5.594-7.601-5.594-4.637 0-8.4 3.764-8.4 8.401 0 9.433 9.516 11.906 16.001 21.232 6.13-9.268 15.999-12.1 15.999-21.232 0-4.637-3.763-8.401-8.4-8.401z"></path>
</symbol>
<symbol id="icon-broken-heart" viewBox="0 0 32 32">
<path d="M30.062 15.986l-13.265 13.674c-0.437 0.453-1.156 0.453-1.601 0l-13.257-13.666c-2.719-3.321-2.586-8.275 0.453-11.393l0.156-0.149c2.686-2.752 6.789-3.152 9.947-1.306l2.503 5.841-5.996 3.998 0.007 0.007-0.007 0.004 8.999 8.99-2.996-7.992 5.997-3.999-0.003-0.010 0.002-0.001-0.029-0.089-1.942-6.473c3.206-2.181 7.597-1.867 10.424 1.022l0.156 0.156c3.039 3.118 3.172 8.072 0.453 11.385z"></path>
</symbol>
<symbol id="icon-quote-left" viewBox="0 0 32 32">
<path d="M29 16h-5v-4c0-2.203 1.797-4 4-4h0.5c0.828 0 1.5-0.672 1.5-1.5v-3c0-0.828-0.672-1.5-1.5-1.5h-0.5c-5.523 0-10 4.477-10 10v15c0 1.656 1.344 3 3 3h8c1.656 0 3-1.344 3-3v-8c0-1.656-1.344-3-3-3zM11 16h-5v-4c0-2.203 1.797-4 4-4h0.5c0.828 0 1.5-0.672 1.5-1.5v-3c0-0.828-0.672-1.5-1.5-1.5h-0.5c-5.523 0-10 4.477-10 10v15c0 1.656 1.344 3 3 3h8c1.656 0 3-1.344 3-3v-8c0-1.656-1.344-3-3-3z"></path>
</symbol>
<symbol id="icon-edit" viewBox="0 0 40 32">
<path d="M14 16c4.418 0 8-3.582 8-8s-3.582-8-8-8c-4.418 0-8 3.582-8 8s3.582 8 8 8zM17.166 19h-6.333c-5.983 0-10.834 4.85-10.834 10.833 0 1.197 0.97 2.167 2.167 2.167h17.901c-0.078-0.346-0.089-0.707-0.018-1.065l0.893-4.463c0.121-0.608 0.417-1.16 0.855-1.597l2.858-2.858c-1.946-1.865-4.58-3.017-7.488-3.017zM23.212 26.289c-0.157 0.157-0.264 0.357-0.308 0.575l-0.893 4.463c-0.079 0.393 0.268 0.74 0.662 0.662l4.464-0.893c0.218-0.044 0.418-0.15 0.575-0.308l7.832-7.831-4.5-4.5-7.832 7.832zM39.341 15.979l-1.319-1.319c-0.879-0.879-2.303-0.879-3.182 0l-2.383 2.384 4.501 4.5 2.383-2.383c0.879-0.879 0.879-2.303 0-3.182z"></path>
</symbol>
<symbol id="icon-bg-img" viewBox="0 0 32 32">
<path d="M28 2h-24c-2.209 0-4 1.791-4 4v20c0 2.209 1.791 4 4 4h24c2.209 0 4-1.791 4-4v-20c0-2.209-1.791-4-4-4zM7 6c1.657 0 3 1.343 3 3s-1.343 3-3 3-3-1.343-3-3 1.343-3 3-3zM27.883 25.472c-0.174 0.325-0.513 0.528-0.882 0.528h-21.875c-0.376 0-0.721-0.211-0.891-0.547s-0.138-0.738 0.083-1.042l4.375-6c0.188-0.258 0.489-0.411 0.808-0.411s0.62 0.153 0.808 0.411l2.028 2.782 5.832-8.748c0.185-0.278 0.498-0.445 0.832-0.445s0.647 0.167 0.832 0.445l8 12c0.205 0.307 0.224 0.701 0.050 1.027z"></path>
</symbol>
<symbol id="icon-profile-img" viewBox="0 0 32 32">
<path d="M29 6h-5.5l-0.773-2.055c-0.438-1.172-1.555-1.945-2.805-1.945h-7.844c-1.25 0-2.375 0.773-2.813 1.945l-0.766 2.055h-5.5c-1.656 0-3 1.344-3 3v18c0 1.656 1.344 3 3 3h26c1.656 0 3-1.344 3-3v-18c0-1.656-1.344-3-3-3zM16 24c-3.313 0-6-2.688-6-6s2.688-6 6-6 6 2.688 6 6-2.688 6-6 6z"></path>
</symbol>
<symbol id="icon-plane" viewBox="0 0 32 32">
<path d="M32 16c0 0.8-0.477 1.523-1.213 1.838l-28 12c-0.254 0.109-0.521 0.162-0.787 0.162-0.539 0-1.068-0.219-1.455-0.628-0.576-0.61-0.709-1.516-0.334-2.267l4.604-9.207 15.185-1.898-15.185-1.898-4.604-9.207c-0.375-0.751-0.242-1.656 0.334-2.267 0.578-0.61 1.473-0.797 2.242-0.466l28 12c0.736 0.315 1.213 1.038 1.213 1.838z"></path>
</symbol>
<symbol id="icon-link-arr" viewBox="0 0 28 32">
<path d="M24 2h-20c-2.209 0-4 1.791-4 4v20c0 2.209 1.791 4 4 4h20c2.209 0 4-1.791 4-4v-20c0-2.209-1.791-4-4-4zM20.657 20.243c0 0.404-0.243 0.769-0.617 0.924s-0.804 0.069-1.090-0.217l-2.828-2.828-4.243 4.243c-0.781 0.781-2.047 0.781-2.828 0l-1.414-1.414c-0.781-0.781-0.781-2.047 0-2.828l4.243-4.243-2.828-2.828c-0.286-0.286-0.372-0.716-0.217-1.090s0.519-0.617 0.924-0.617h9.9c0.552 0 1 0.448 1 1v9.9z"></path>
</symbol>
<symbol id="icon-edit-pen" viewBox="0 0 28 32">
<path d="M24 2h-20c-2.209 0-4 1.791-4 4v20c0 2.209 1.791 4 4 4h20c2.209 0 4-1.791 4-4v-20c0-2.209-1.791-4-4-4zM11.173 23.006c-1.391 0.328-4.475 0.982-4.475 0.982-0.039 0.008-0.078 0.012-0.116 0.012-0.357 0-0.643-0.329-0.57-0.698l1.006-4.476c0.097-0.431 0.314-0.825 0.627-1.138l6.314-6.315 4.667 4.667c-2.504 2.504-5.041 5.042-6.35 6.35-0.306 0.306-0.682 0.517-1.103 0.616zM21.318 13.348l-1.278 1.278-4.667-4.667 1.275-1.275c0.456-0.456 1.053-0.684 1.65-0.684s1.194 0.228 1.65 0.683l1.368 1.368c0.911 0.911 0.914 2.385 0.003 3.296z"></path>
</symbol>
<symbol id="icon-follow-add" viewBox="0 0 32 32">
<path d="M16 1c-8.285 0-15 6.715-15 15s6.715 15 15 15c8.285 0 15-6.715 15-15s-6.715-15-15-15zM22 17.5h-4.5v4.5c0 0.825-0.675 1.5-1.5 1.5s-1.5-0.675-1.5-1.5v-4.5h-4.5c-0.825 0-1.5-0.675-1.5-1.5s0.675-1.5 1.5-1.5h4.5v-4.5c0-0.825 0.675-1.5 1.5-1.5s1.5 0.675 1.5 1.5v4.5h4.5c0.825 0 1.5 0.675 1.5 1.5s-0.675 1.5-1.5 1.5z"></path>
</symbol>
<symbol id="icon-unfollow-minus" viewBox="0 0 32 32">
<path d="M16 1c-8.285 0-15 6.715-15 15s6.715 15 15 15c8.285 0 15-6.715 15-15s-6.715-15-15-15zM22 17.5h-12c-0.825 0-1.5-0.675-1.5-1.5s0.675-1.5 1.5-1.5h12c0.825 0 1.5 0.675 1.5 1.5s-0.675 1.5-1.5 1.5z"></path>
</symbol>
<symbol id="icon-lock" viewBox="0 0 32 32">
<path d="M26 14h-1v-5c0-4.963-4.037-9-9-9s-9 4.037-9 9v5h-1c-2.209 0-4 1.791-4 4v10c0 2.209 1.791 4 4 4h20c2.209 0 4-1.791 4-4v-10c0-2.209-1.791-4-4-4zM11 9c0-2.758 2.243-5 5-5s5 2.242 5 5v5h-10v-5z"></path>
</symbol>
<symbol id="icon-unlock" viewBox="0 0 28 32">
<path d="M28 18v10c0 2.209-1.791 4-4 4h-20c-2.209 0-4-1.791-4-4v-10c0-2.209 1.791-4 4-4h1v-5c0-4.963 4.037-9 9-9s9 4.037 9 9v1h-4v-1c0-2.758-2.243-5-5-5s-5 2.242-5 5v5h15c2.209 0 4 1.791 4 4z"></path>
</symbol>
<symbol id="icon-caret" viewBox="0 0 32 32">
<path d="M16 1c-8.284 0-15 6.716-15 15s6.716 15 15 15 15-6.716 15-15-6.716-15-15-15zM23.6 15.521l-6.5 7c-0.284 0.305-0.683 0.479-1.1 0.479s-0.815-0.174-1.1-0.479l-6.5-7c-0.405-0.438-0.514-1.074-0.275-1.621s0.778-0.9 1.375-0.9h13c0.597 0 1.137 0.354 1.375 0.9s0.13 1.184-0.275 1.621z"></path>
</symbol>
<!-- </defs> -->
</svg>


